<?xml version="1.0" encoding="utf-8"?>
<!-- Generator: Adobe Illustrator 17.0.0, SVG Export Plug-In . SVG Version: 6.00 Build 0)  -->
<!DOCTYPE svg PUBLIC "-//W3C//DTD SVG 1.1//EN" "http://www.w3.org/Graphics/SVG/1.1/DTD/svg11.dtd">
<svg version="1.1" id="Layer_1" xmlns="http://www.w3.org/2000/svg" xmlns:xlink="http://www.w3.org/1999/xlink" x="0px" y="0px"
	 width="78.103px" height="50px" viewBox="-15.062 -9.643 78.103 50" enable-background="new -15.062 -9.643 78.103 50"
	 xml:space="preserve">
<g id="Layer_1_1_">
	<g>
		<path fill="#414042" d="M45.023,9.41c-6.71-1.507-8.356-2.478-8.356-4.678V4.593c0-1.739,1.585-3.124,4.831-3.124
			c4.216,0,9.002,1.631,13.373,4.678l5.863-10.141c-5.079-3.71-11.203-5.649-18.897-5.649c-1.877,0-3.632,0.169-5.263,0.493
			L24.418,11.98c2.647,5.279,9.126,7.387,16.942,9.171c6.555,1.524,8.155,2.632,8.155,4.633v0.138c0,2.062-1.939,3.309-5.525,3.309
			c-5.539,0-10.818-1.955-15.542-5.694L22.554,33.74c5.74,4.385,13.189,6.617,20.943,6.617c11.741,0,19.544-5.863,19.544-15.743
			v-0.155C63.043,15.426,56.133,11.84,45.023,9.41z"/>
		<path fill="#414042" d="M20.047,2.705l6.907-11.973h-42.016v49.364H-0.62V22.45h9.274l6.541-11.348H1.892V2.705H20.047z"/>
	</g>
</g>
<g id="guides">
</g>
</svg>
