<?xml version="1.0" encoding="utf-8"?>
<!-- Generator: Adobe Illustrator 17.0.0, SVG Export Plug-In . SVG Version: 6.00 Build 0)  -->
<!DOCTYPE svg PUBLIC "-//W3C//DTD SVG 1.1//EN" "http://www.w3.org/Graphics/SVG/1.1/DTD/svg11.dtd">
<svg version="1.1" xmlns="http://www.w3.org/2000/svg" xmlns:xlink="http://www.w3.org/1999/xlink" x="0px" y="0px"
	 width="133.65px" height="48.731px" viewBox="0 0 133.65 48.731" enable-background="new 0 0 133.65 48.731" xml:space="preserve">
<g id="Layer_1">
	<g opacity="0.7">
		<path fill="#414042" d="M15.589,35.786h3.367l5.365,12.693h-3.745l-0.918-2.251h-4.862l-0.9,2.251h-3.673L15.589,35.786z
			 M18.65,43.51l-1.404-3.583l-1.423,3.583H18.65z"/>
		<path fill="#414042" d="M25.038,46.607l1.944-2.323c1.243,0.99,2.629,1.513,4.087,1.513c0.937,0,1.44-0.324,1.44-0.864v-0.036
			c0-0.522-0.414-0.811-2.125-1.206c-2.683-0.612-4.753-1.369-4.753-3.962v-0.035c0-2.341,1.854-4.033,4.879-4.033
			c2.143,0,3.817,0.576,5.186,1.674l-1.747,2.467c-1.152-0.811-2.413-1.242-3.529-1.242c-0.846,0-1.26,0.36-1.26,0.811v0.035
			c0,0.576,0.432,0.829,2.179,1.225c2.899,0.631,4.7,1.566,4.7,3.926v0.035c0,2.575-2.035,4.105-5.096,4.105
			C28.71,48.695,26.586,47.993,25.038,46.607z"/>
		<path fill="#414042" d="M37.223,46.607l1.944-2.323c1.242,0.99,2.629,1.513,4.087,1.513c0.937,0,1.44-0.324,1.44-0.864v-0.036
			c0-0.522-0.414-0.811-2.124-1.206c-2.684-0.612-4.754-1.369-4.754-3.962v-0.035c0-2.341,1.854-4.033,4.88-4.033
			c2.143,0,3.816,0.576,5.186,1.674l-1.747,2.467c-1.152-0.811-2.412-1.242-3.529-1.242c-0.846,0-1.26,0.36-1.26,0.811v0.035
			c0,0.576,0.432,0.829,2.179,1.225c2.898,0.631,4.699,1.566,4.699,3.926v0.035c0,2.575-2.034,4.105-5.096,4.105
			C40.896,48.695,38.771,47.993,37.223,46.607z"/>
		<path fill="#414042" d="M50.616,35.876h3.511v12.604h-3.511V35.876z"/>
		<path fill="#414042" d="M56.105,46.607l1.944-2.323c1.242,0.99,2.629,1.513,4.087,1.513c0.937,0,1.44-0.324,1.44-0.864v-0.036
			c0-0.522-0.414-0.811-2.124-1.206c-2.684-0.612-4.754-1.369-4.754-3.962v-0.035c0-2.341,1.854-4.033,4.88-4.033
			c2.143,0,3.816,0.576,5.186,1.674l-1.747,2.467c-1.152-0.811-2.412-1.242-3.529-1.242c-0.846,0-1.26,0.36-1.26,0.811v0.035
			c0,0.576,0.432,0.829,2.179,1.225c2.898,0.631,4.699,1.566,4.699,3.926v0.035c0,2.575-2.034,4.105-5.096,4.105
			C59.778,48.695,57.653,47.993,56.105,46.607z"/>
		<path fill="#414042" d="M72.144,38.936h-3.781v-3.061h11.055v3.061h-3.78v9.543h-3.493V38.936z"/>
		<path fill="#414042" d="M84.31,35.786h3.367l5.365,12.693h-3.745l-0.918-2.251h-4.861l-0.9,2.251h-3.673L84.31,35.786z
			 M87.372,43.51l-1.405-3.583l-1.422,3.583H87.372z"/>
		<path fill="#414042" d="M94.893,35.876h3.259l5.186,6.662v-6.662h3.457v12.604h-3.061l-5.384-6.914v6.914h-3.457V35.876z"/>
		<path fill="#414042" d="M109.22,42.214v-0.036c0-3.673,2.827-6.554,6.645-6.554c2.574,0,4.231,1.08,5.348,2.628l-2.629,2.035
			c-0.721-0.9-1.549-1.477-2.755-1.477c-1.765,0-3.007,1.494-3.007,3.331v0.036c0,1.891,1.242,3.367,3.007,3.367
			c1.314,0,2.089-0.612,2.845-1.531l2.629,1.873c-1.188,1.639-2.791,2.845-5.582,2.845C112.12,48.731,109.22,45.976,109.22,42.214z"
			/>
		<path fill="#414042" d="M123.422,35.876h10.138v2.971h-6.681v1.908h6.05v2.755h-6.05v1.999h6.771v2.971h-10.228V35.876z"/>
	</g>
	<path fill="#414042" d="M36.911,11.704c-4.122-0.926-5.133-1.522-5.133-2.874V8.745c0-1.068,0.974-1.919,2.968-1.919
		c2.59,0,5.53,1.002,8.215,2.874l3.602-6.23C43.443,1.191,39.681,0,34.954,0c-1.153,0-2.231,0.104-3.233,0.303l-7.468,12.98
		c1.626,3.243,5.606,4.538,10.408,5.634c4.027,0.936,5.01,1.617,5.01,2.846v0.085c0,1.267-1.191,2.033-3.394,2.033
		c-3.403,0-6.646-1.201-9.548-3.498l-3.621,6.268c3.526,2.694,8.102,4.065,12.866,4.065c7.213,0,12.006-3.602,12.006-9.671v-0.095
		C47.981,15.4,43.736,13.197,36.911,11.704z"/>
	<path fill="#414042" d="M21.568,7.585l4.243-7.355H0v30.325h8.872v-10.84h5.697l4.018-6.971h-8.172V7.585H21.568z"/>
</g>
<g id="guide" display="none">
	<g display="inline">
		<rect x="-53.861" y="-5.056" opacity="0.8" fill="#EC008C" fill-opacity="0.61" width="119.192" height="5.217"/>
		<rect x="-53.861" y="30.569" opacity="0.8" fill="#EC008C" fill-opacity="0.61" width="181.165" height="5.217"/>
		<rect x="-0.101" y="-15.391" opacity="0.8" fill="#EC008C" fill-opacity="0.61" width="5.217" height="49.533"/>
		<rect x="5.129" y="-15.391" opacity="0.8" fill="#EC008C" fill-opacity="0.61" width="5.217" height="65.3"/>
		<rect x="46.566" y="-15.203" opacity="0.8" fill="#EC008C" fill-opacity="0.61" width="5.217" height="49.533"/>
		<polygon opacity="0.8" fill="#EC008C" fill-opacity="0.61" points="34.64,-4.843 15.97,27.497 10.03,27.497 30.19,-7.423 		"/>
		<polygon opacity="0.8" fill="#EC008C" fill-opacity="0.61" points="21.64,17.823 2.97,50.163 -2.97,50.163 17.19,15.243 		"/>
	</g>
</g>
</svg>
