<?xml version="1.0" encoding="utf-8"?>
<!-- Generator: Adobe Illustrator 18.1.0, SVG Export Plug-In . SVG Version: 6.00 Build 0)  -->
<svg version="1.1" id="Layer_1" xmlns="http://www.w3.org/2000/svg" xmlns:xlink="http://www.w3.org/1999/xlink" x="0px" y="0px"
	 viewBox="0 0 108 48.7" enable-background="new 0 0 108 48.7" xml:space="preserve">
<g>
	<g opacity="0.7">
		<path fill="#414042" d="M10.3,42.2L10.3,42.2c0-3.7,2.8-6.6,6.6-6.6c2.6,0,4.2,1.1,5.3,2.6l-2.6,2c-0.7-0.9-1.5-1.5-2.8-1.5
			c-1.8,0-3,1.5-3,3.3v0c0,1.9,1.2,3.4,3,3.4c1.3,0,2.1-0.6,2.8-1.5l2.6,1.9c-1.2,1.6-2.8,2.8-5.6,2.8C13.2,48.7,10.3,46,10.3,42.2z
			"/>
		<path fill="#414042" d="M23.7,42.2L23.7,42.2c0-3.7,2.9-6.6,6.8-6.6s6.8,2.9,6.8,6.5v0c0,3.6-2.9,6.6-6.8,6.6S23.7,45.8,23.7,42.2
			z M33.7,42.2L33.7,42.2c0-1.9-1.3-3.4-3.2-3.4c-1.9,0-3.2,1.5-3.2,3.4v0c0,1.8,1.3,3.4,3.2,3.4C32.4,45.6,33.7,44,33.7,42.2z"/>
		<path fill="#414042" d="M39.4,35.9h3.7l3,4.9l3-4.9h3.7v12.6h-3.5v-7.2l-3.2,4.9h-0.1l-3.2-4.9v7.2h-3.4V35.9z"/>
		<path fill="#414042" d="M55.7,35.9h5.4c3.2,0,5.2,1.6,5.2,4.4v0c0,3-2.3,4.5-5.4,4.5h-1.7v3.6h-3.5V35.9z M60.8,42.1
			c1.2,0,2-0.6,2-1.6v0c0-1.1-0.8-1.7-2-1.7h-1.6v3.3H60.8z"/>
		<path fill="#414042" d="M71,35.8h3.4l5.4,12.7H76l-0.9-2.3h-4.9l-0.9,2.3h-3.7L71,35.8z M74.1,43.5l-1.4-3.6l-1.4,3.6H74.1z"/>
		<path fill="#414042" d="M81.3,35.9h3.3l5.2,6.7v-6.7h3.5v12.6h-3.1l-5.4-6.9v6.9h-3.5V35.9z"/>
		<path fill="#414042" d="M99.7,43.8l-4.8-7.9h4l2.6,4.6l2.6-4.6h3.9l-4.8,7.8v4.8h-3.5V43.8z"/>
	</g>
	<path fill="#414042" d="M36.9,11.7c-4.1-0.9-5.1-1.5-5.1-2.9V8.7c0-1.1,1-1.9,3-1.9c2.6,0,5.5,1,8.2,2.9l3.6-6.2
		C43.4,1.2,39.7,0,35,0c-1.2,0-2.2,0.1-3.2,0.3l-7.5,13c1.6,3.2,5.6,4.5,10.4,5.6c4,0.9,5,1.6,5,2.8v0.1c0,1.3-1.2,2-3.4,2
		c-3.4,0-6.6-1.2-9.5-3.5l-3.6,6.3c3.5,2.7,8.1,4.1,12.9,4.1c7.2,0,12-3.6,12-9.7V21C48,15.4,43.7,13.2,36.9,11.7z"/>
	<path fill="#414042" d="M21.6,7.6l4.2-7.4H0v30.3h8.9V19.7h5.7l4-7h-8.2V7.6H21.6z"/>
</g>
</svg>
