<?xml version="1.0" encoding="utf-8"?>
<!-- Generator: Adobe Illustrator 17.0.0, SVG Export Plug-In . SVG Version: 6.00 Build 0)  -->
<!DOCTYPE svg PUBLIC "-//W3C//DTD SVG 1.1//EN" "http://www.w3.org/Graphics/SVG/1.1/DTD/svg11.dtd">
<svg version="1.1" xmlns="http://www.w3.org/2000/svg" xmlns:xlink="http://www.w3.org/1999/xlink" x="0px" y="0px"
	 width="107.936px" height="48.714px" viewBox="0 0 107.936 48.714" enable-background="new 0 0 107.936 48.714"
	 xml:space="preserve">
<g id="Layer_1">
	<g opacity="0.7">
		<path fill="#414042" d="M10.258,42.196V42.16c0-3.673,2.827-6.554,6.644-6.554c2.575,0,4.231,1.08,5.348,2.628l-2.629,2.035
			c-0.72-0.9-1.548-1.477-2.755-1.477c-1.764,0-3.007,1.494-3.007,3.331v0.036c0,1.891,1.243,3.367,3.007,3.367
			c1.314,0,2.089-0.612,2.845-1.531l2.628,1.873c-1.188,1.639-2.791,2.845-5.582,2.845C13.157,48.714,10.258,45.959,10.258,42.196z"
			/>
		<path fill="#414042" d="M23.667,42.196V42.16c0-3.619,2.917-6.554,6.806-6.554s6.77,2.898,6.77,6.518v0.036
			c0,3.619-2.917,6.554-6.806,6.554S23.667,45.816,23.667,42.196z M33.679,42.196V42.16c0-1.818-1.314-3.403-3.241-3.403
			c-1.908,0-3.187,1.549-3.187,3.367v0.036c0,1.818,1.314,3.403,3.223,3.403C32.4,45.564,33.679,44.015,33.679,42.196z"/>
		<path fill="#414042" d="M39.438,35.859h3.691l3.007,4.879l3.007-4.879h3.69v12.604h-3.475v-7.238l-3.223,4.934h-0.072
			l-3.205-4.897v7.202h-3.421V35.859z"/>
		<path fill="#414042" d="M55.692,35.859h5.401c3.187,0,5.239,1.639,5.239,4.429v0.036c0,2.971-2.286,4.538-5.419,4.538h-1.729
			v3.601h-3.493V35.859z M60.841,42.124c1.242,0,1.999-0.648,1.999-1.639v-0.036c0-1.08-0.757-1.656-2.017-1.656h-1.639v3.331
			H60.841z"/>
		<path fill="#414042" d="M71.032,35.769h3.367l5.365,12.693h-3.745l-0.918-2.251H70.24l-0.9,2.251h-3.674L71.032,35.769z
			 M74.092,43.492l-1.404-3.583l-1.423,3.583H74.092z"/>
		<path fill="#414042" d="M81.239,35.859h3.26l5.186,6.662v-6.662h3.457v12.604H90.08l-5.384-6.914v6.914h-3.457V35.859z"/>
		<path fill="#414042" d="M99.636,43.744l-4.79-7.886h3.979l2.593,4.591l2.611-4.591h3.906l-4.789,7.832v4.771h-3.511V43.744z"/>
	</g>
	<path fill="#414042" d="M36.911,11.704c-4.122-0.926-5.133-1.522-5.133-2.874V8.745c0-1.068,0.974-1.919,2.968-1.919
		c2.59,0,5.53,1.002,8.215,2.874l3.602-6.23C43.443,1.191,39.681,0,34.954,0c-1.153,0-2.231,0.104-3.233,0.303l-7.468,12.98
		c1.626,3.243,5.606,4.538,10.408,5.634c4.027,0.936,5.01,1.617,5.01,2.846v0.085c0,1.267-1.191,2.033-3.394,2.033
		c-3.403,0-6.646-1.201-9.548-3.498l-3.621,6.268c3.526,2.694,8.102,4.065,12.866,4.065c7.213,0,12.006-3.602,12.006-9.671v-0.095
		C47.981,15.4,43.736,13.197,36.911,11.704z"/>
	<path fill="#414042" d="M21.568,7.585l4.243-7.355H0v30.325h8.872v-10.84h5.697l4.018-6.971h-8.172V7.585H21.568z"/>
</g>
<g id="guide" display="none">
	<g display="inline">
		<rect x="-53.861" y="-5.056" opacity="0.8" fill="#EC008C" fill-opacity="0.61" width="119.192" height="5.217"/>
		<rect x="-53.861" y="30.569" opacity="0.8" fill="#EC008C" fill-opacity="0.61" width="181.165" height="5.217"/>
		<rect x="-0.101" y="-15.391" opacity="0.8" fill="#EC008C" fill-opacity="0.61" width="5.217" height="49.533"/>
		<rect x="5.129" y="-15.391" opacity="0.8" fill="#EC008C" fill-opacity="0.61" width="5.217" height="65.3"/>
		<rect x="46.566" y="-15.203" opacity="0.8" fill="#EC008C" fill-opacity="0.61" width="5.217" height="49.533"/>
		<polygon opacity="0.8" fill="#EC008C" fill-opacity="0.61" points="34.64,-4.843 15.97,27.497 10.03,27.497 30.19,-7.423 		"/>
		<polygon opacity="0.8" fill="#EC008C" fill-opacity="0.61" points="21.64,17.823 2.97,50.163 -2.97,50.163 17.19,15.243 		"/>
	</g>
</g>
</svg>
