<?xml version="1.0" encoding="utf-8"?>
<!-- Generator: Adobe Illustrator 17.0.0, SVG Export Plug-In . SVG Version: 6.00 Build 0)  -->
<!DOCTYPE svg PUBLIC "-//W3C//DTD SVG 1.1//EN" "http://www.w3.org/Graphics/SVG/1.1/DTD/svg11.dtd">
<svg version="1.1" id="Layer_1" xmlns="http://www.w3.org/2000/svg" xmlns:xlink="http://www.w3.org/1999/xlink" x="0px" y="0px"
	 width="528.643px" height="239.315px" viewBox="-216.337 810.834 528.643 239.315"
	 enable-background="new -216.337 810.834 528.643 239.315" xml:space="preserve">
<g>
	<g opacity="0.7">
		<path fill="#404041" d="M-166.323,1017.881L-166.323,1017.881c0-18.285,13.982-32.267,32.805-32.267
			c12.369,0,20.974,5.378,26.351,12.907l-12.907,10.218c-3.764-4.302-7.529-6.991-13.445-6.991c-8.605,0-14.52,7.529-14.52,16.134
			l0,0c0,9.142,5.916,16.671,14.52,16.671c6.453,0,10.218-3.227,13.982-7.529l12.907,9.142
			c-5.916,8.067-13.445,13.983-27.427,13.983C-152.341,1050.149-166.323,1036.704-166.323,1017.881z"/>
		<path fill="#404041" d="M-100.714,1017.881L-100.714,1017.881c0-17.747,14.52-32.267,33.343-32.267s33.343,13.982,33.343,31.729
			l0,0c0,17.747-14.52,32.267-33.343,32.267S-100.714,1035.629-100.714,1017.881z M-51.775,1017.881L-51.775,1017.881
			c0-9.142-6.453-16.671-16.134-16.671c-9.142,0-15.596,7.529-15.596,16.671l0,0c0,9.142,6.453,16.671,15.596,16.671
			C-57.691,1034.553-51.775,1027.024-51.775,1017.881z"/>
		<path fill="#404041" d="M-23.272,987.228h18.285l14.52,23.663l14.52-23.663h18.285v61.845H25.128v-36.032l-15.596,24.2H8.995
			l-15.596-24.2v35.494h-16.671L-23.272,987.228L-23.272,987.228z"/>
		<path fill="#404041" d="M56.32,987.228h26.351c15.596,0,25.814,8.067,25.814,21.511l0,0c0,14.52-11.294,22.049-26.351,22.049
			h-8.605v17.747H56.32V987.228z M81.596,1017.881c5.916,0,9.68-3.227,9.68-8.067l0,0c0-5.378-3.764-8.067-9.68-8.067h-8.067v16.134
			H81.596z"/>
		<path fill="#404041" d="M131.61,986.69h16.671l26.351,62.383h-18.285l-4.302-11.293h-23.663l-4.302,11.293h-17.747L131.61,986.69z
			 M146.13,1024.335l-6.991-17.747l-6.991,17.747H146.13z"/>
		<path fill="#404041" d="M181.624,987.228h16.134l25.276,32.805v-32.805h16.671v61.845h-15.058l-26.351-33.88v33.88h-16.671
			V987.228z"/>
		<path fill="#404041" d="M271.434,1025.41l-23.663-38.721h19.36l12.907,22.587l12.907-22.587h19.36l-23.663,38.183v23.125h-17.209
			L271.434,1025.41L271.434,1025.41z"/>
	</g>
	<path fill="#404041" d="M-35.641,868.377c-20.436-4.302-25.276-7.529-25.276-13.982v-0.538c0-5.378,4.84-9.142,14.52-9.142
		c12.907,0,26.889,4.84,40.334,13.982l17.747-30.654c-15.058-11.294-33.881-17.209-57.005-17.209
		c-5.916,0-10.756,0.538-15.596,1.613l-36.569,63.459c8.067,16.134,27.427,22.049,51.09,27.427
		c19.898,4.84,24.738,8.067,24.738,13.982v0.538c0,6.453-5.916,10.218-16.671,10.218c-16.671,0-32.805-5.916-46.787-17.209
		l-17.747,30.654c17.209,13.445,39.796,19.898,62.921,19.898c35.494,0,58.619-17.747,58.619-47.325v-0.538
		C18.137,886.662-2.299,875.906-35.641,868.377z"/>
	<path fill="#404041" d="M-110.931,848.479l20.974-36.032h-126.38v148.429h43.561v-53.241h27.965l19.898-34.418h-39.796v-25.276
		h53.779V848.479z"/>
</g>
</svg>
