<?xml version="1.0" encoding="utf-8"?>
<!-- Generator: Adobe Illustrator 17.0.0, SVG Export Plug-In . SVG Version: 6.00 Build 0)  -->
<!DOCTYPE svg PUBLIC "-//W3C//DTD SVG 1.1//EN" "http://www.w3.org/Graphics/SVG/1.1/DTD/svg11.dtd">
<svg version="1.1" xmlns="http://www.w3.org/2000/svg" xmlns:xlink="http://www.w3.org/1999/xlink" x="0px" y="0px"
	 width="176.368px" height="48.462px" viewBox="0 0 176.368 48.462" enable-background="new 0 0 176.368 48.462"
	 xml:space="preserve">
<g id="Layer_1">
	<g opacity="0.7">
		<path fill="#414042" d="M10.315,35.858h10.137v2.971h-6.68v1.908h6.05v2.755h-6.05v1.999h6.77v2.971H10.315V35.858z"/>
		<path fill="#414042" d="M22.951,35.858h3.259l5.186,6.662v-6.662h3.457v12.604h-3.061l-5.384-6.914v6.914h-3.457V35.858z"/>
		<path fill="#414042" d="M40.54,38.919h-3.781v-3.061h11.056v3.061h-3.781v9.543H40.54V38.919z"/>
		<path fill="#414042" d="M49.741,35.858h10.138v2.971h-6.681v1.908h6.05v2.755h-6.05v1.999h6.771v2.971H49.741V35.858z"/>
		<path fill="#414042" d="M62.378,35.858h5.96c1.927,0,3.259,0.504,4.104,1.368c0.738,0.721,1.117,1.692,1.117,2.935v0.036
			c0,1.927-1.026,3.205-2.593,3.871l3.007,4.394H69.94l-2.539-3.817h-0.036h-1.494v3.817h-3.493V35.858z M68.176,41.908
			c1.188,0,1.872-0.576,1.872-1.495v-0.035c0-0.991-0.72-1.495-1.891-1.495h-2.286v3.025H68.176z"/>
		<path fill="#414042" d="M79.028,38.919h-3.781v-3.061h11.056v3.061h-3.781v9.543h-3.493V38.919z"/>
		<path fill="#414042" d="M90.82,35.769h3.367l5.365,12.693h-3.745l-0.918-2.251h-4.861l-0.9,2.251h-3.674L90.82,35.769z
			 M93.881,43.492l-1.404-3.583l-1.423,3.583H93.881z"/>
		<path fill="#414042" d="M101.162,35.858h3.511v12.604h-3.511V35.858z"/>
		<path fill="#414042" d="M107.606,35.858h3.259l5.186,6.662v-6.662h3.457v12.604h-3.061l-5.384-6.914v6.914h-3.457V35.858z"/>
		<path fill="#414042" d="M122.366,35.858h3.691l3.007,4.879l3.007-4.879h3.69v12.604h-3.475v-7.238l-3.223,4.934h-0.072
			l-3.205-4.897v7.202h-3.421V35.858z"/>
		<path fill="#414042" d="M138.62,35.858h10.137v2.971h-6.68v1.908h6.05v2.755h-6.05v1.999h6.77v2.971H138.62V35.858z"/>
		<path fill="#414042" d="M151.256,35.858h3.259l5.186,6.662v-6.662h3.457v12.604h-3.061l-5.384-6.914v6.914h-3.457V35.858z"/>
		<path fill="#414042" d="M169.095,38.919h-3.781v-3.061h11.055v3.061h-3.78v9.543h-3.493V38.919z"/>
	</g>
	<path fill="#414042" d="M36.911,11.704c-4.122-0.926-5.133-1.522-5.133-2.874V8.745c0-1.068,0.974-1.919,2.968-1.919
		c2.59,0,5.53,1.002,8.215,2.874l3.602-6.23C43.443,1.191,39.681,0,34.954,0c-1.153,0-2.231,0.104-3.233,0.303l-7.468,12.98
		c1.626,3.243,5.606,4.538,10.408,5.634c4.027,0.936,5.01,1.617,5.01,2.846v0.085c0,1.267-1.191,2.033-3.394,2.033
		c-3.403,0-6.646-1.201-9.548-3.498l-3.621,6.268c3.526,2.694,8.102,4.065,12.866,4.065c7.213,0,12.006-3.602,12.006-9.671v-0.095
		C47.981,15.4,43.736,13.197,36.911,11.704z"/>
	<path fill="#414042" d="M21.568,7.585l4.243-7.355H0v30.325h8.872v-10.84h5.697l4.018-6.971h-8.172V7.585H21.568z"/>
</g>
<g id="guide" display="none">
	<g display="inline">
		<rect x="-53.861" y="-5.056" opacity="0.8" fill="#EC008C" fill-opacity="0.61" width="119.192" height="5.217"/>
		<rect x="-53.861" y="30.569" opacity="0.8" fill="#EC008C" fill-opacity="0.61" width="181.165" height="5.217"/>
		<rect x="-0.101" y="-15.391" opacity="0.8" fill="#EC008C" fill-opacity="0.61" width="5.217" height="49.533"/>
		<rect x="5.129" y="-15.391" opacity="0.8" fill="#EC008C" fill-opacity="0.61" width="5.217" height="65.3"/>
		<rect x="46.566" y="-15.203" opacity="0.8" fill="#EC008C" fill-opacity="0.61" width="5.217" height="49.533"/>
		<polygon opacity="0.8" fill="#EC008C" fill-opacity="0.61" points="34.64,-4.843 15.97,27.497 10.03,27.497 30.19,-7.423 		"/>
		<polygon opacity="0.8" fill="#EC008C" fill-opacity="0.61" points="21.64,17.823 2.97,50.163 -2.97,50.163 17.19,15.243 		"/>
	</g>
</g>
</svg>
