<?xml version="1.0" encoding="utf-8"?>
<!-- Generator: Adobe Illustrator 17.0.0, SVG Export Plug-In . SVG Version: 6.00 Build 0)  -->
<!DOCTYPE svg PUBLIC "-//W3C//DTD SVG 1.1//EN" "http://www.w3.org/Graphics/SVG/1.1/DTD/svg11.dtd">
<svg version="1.1" xmlns="http://www.w3.org/2000/svg" xmlns:xlink="http://www.w3.org/1999/xlink" x="0px" y="0px"
	 width="108.261px" height="48.648px" viewBox="0 0 108.261 48.648" enable-background="new 0 0 108.261 48.648"
	 xml:space="preserve">
<g id="Layer_1">
	<g opacity="0.7">
		<path fill="#414042" d="M9.819,46.524l1.944-2.323c1.243,0.99,2.629,1.513,4.087,1.513c0.937,0,1.44-0.324,1.44-0.864v-0.036
			c0-0.522-0.414-0.811-2.125-1.206c-2.683-0.612-4.753-1.369-4.753-3.962V39.61c0-2.341,1.854-4.033,4.879-4.033
			c2.143,0,3.817,0.576,5.186,1.674l-1.747,2.467c-1.152-0.811-2.413-1.242-3.529-1.242c-0.846,0-1.26,0.36-1.26,0.811v0.035
			c0,0.576,0.432,0.829,2.179,1.225c2.899,0.631,4.7,1.566,4.7,3.926v0.035c0,2.575-2.035,4.105-5.096,4.105
			C13.492,48.612,11.368,47.91,9.819,46.524z"/>
		<path fill="#414042" d="M23.139,35.793h10.137v2.971h-6.68v1.908h6.05v2.755h-6.05v1.999h6.77v2.971H23.139V35.793z"/>
		<path fill="#414042" d="M35.251,42.13v-0.036c0-3.673,2.827-6.554,6.644-6.554c2.574,0,4.231,1.08,5.348,2.628l-2.629,2.035
			c-0.721-0.9-1.549-1.477-2.755-1.477c-1.765,0-3.007,1.494-3.007,3.331v0.036c0,1.891,1.242,3.367,3.007,3.367
			c1.314,0,2.089-0.612,2.845-1.531l2.629,1.873c-1.188,1.639-2.791,2.845-5.582,2.845C38.15,48.648,35.251,45.893,35.251,42.13z"/>
		<path fill="#414042" d="M49.291,42.869v-7.076h3.547v7.004c0,1.818,0.918,2.683,2.323,2.683c1.404,0,2.322-0.828,2.322-2.593
			v-7.094h3.547v6.985c0,4.069-2.322,5.853-5.905,5.853S49.291,46.811,49.291,42.869z"/>
		<path fill="#414042" d="M63.726,35.793h5.96c1.927,0,3.259,0.504,4.105,1.368c0.738,0.721,1.116,1.692,1.116,2.935v0.036
			c0,1.927-1.026,3.205-2.593,3.871l3.007,4.394h-4.033l-2.539-3.817h-0.035h-1.495v3.817h-3.493V35.793z M69.524,41.842
			c1.188,0,1.873-0.576,1.873-1.495v-0.035c0-0.991-0.721-1.495-1.891-1.495h-2.287v3.025H69.524z"/>
		<path fill="#414042" d="M77.371,35.793h3.511v12.604h-3.511V35.793z"/>
		<path fill="#414042" d="M86.893,38.853h-3.781v-3.061h11.056v3.061h-3.781v9.543h-3.493V38.853z"/>
		<path fill="#414042" d="M99.961,43.678l-4.79-7.886h3.979l2.593,4.591l2.611-4.591h3.906l-4.789,7.832v4.771h-3.511V43.678z"/>
	</g>
	<path fill="#414042" d="M36.911,11.704c-4.122-0.926-5.133-1.522-5.133-2.874V8.745c0-1.068,0.974-1.919,2.968-1.919
		c2.59,0,5.53,1.002,8.215,2.874l3.602-6.23C43.443,1.191,39.681,0,34.954,0c-1.153,0-2.231,0.104-3.233,0.303l-7.468,12.98
		c1.626,3.243,5.606,4.538,10.408,5.634c4.027,0.936,5.01,1.617,5.01,2.846v0.085c0,1.267-1.191,2.033-3.394,2.033
		c-3.403,0-6.646-1.201-9.548-3.498l-3.621,6.268c3.526,2.694,8.102,4.065,12.866,4.065c7.213,0,12.006-3.602,12.006-9.671v-0.095
		C47.981,15.4,43.736,13.197,36.911,11.704z"/>
	<path fill="#414042" d="M21.568,7.585l4.243-7.355H0v30.325h8.872v-10.84h5.697l4.018-6.971h-8.172V7.585H21.568z"/>
</g>
<g id="guide" display="none">
	<g display="inline">
		<rect x="-53.861" y="-5.056" opacity="0.8" fill="#EC008C" fill-opacity="0.61" width="119.192" height="5.217"/>
		<rect x="-53.861" y="30.569" opacity="0.8" fill="#EC008C" fill-opacity="0.61" width="181.165" height="5.217"/>
		<rect x="-0.101" y="-15.391" opacity="0.8" fill="#EC008C" fill-opacity="0.61" width="5.217" height="49.533"/>
		<rect x="5.129" y="-15.391" opacity="0.8" fill="#EC008C" fill-opacity="0.61" width="5.217" height="65.3"/>
		<rect x="46.566" y="-15.203" opacity="0.8" fill="#EC008C" fill-opacity="0.61" width="5.217" height="49.533"/>
		<polygon opacity="0.8" fill="#EC008C" fill-opacity="0.61" points="34.64,-4.843 15.97,27.497 10.03,27.497 30.19,-7.423 		"/>
		<polygon opacity="0.8" fill="#EC008C" fill-opacity="0.61" points="21.64,17.823 2.97,50.163 -2.97,50.163 17.19,15.243 		"/>
	</g>
</g>
</svg>
