<?xml version="1.0" encoding="utf-8"?>
<!-- Generator: Adobe Illustrator 18.1.0, SVG Export Plug-In . SVG Version: 6.00 Build 0)  -->
<svg version="1.1" id="Layer_1" xmlns="http://www.w3.org/2000/svg" xmlns:xlink="http://www.w3.org/1999/xlink" x="0px" y="0px"
	 viewBox="0 0 47.1 30.1" enable-background="new 0 0 47.1 30.1" xml:space="preserve">
<g>
	<path fill="#414042" d="M36.2,11.5c-4-0.9-5-1.5-5-2.8V8.6c0-1,1-1.9,2.9-1.9c2.5,0,5.4,1,8.1,2.8l3.5-6.1C42.6,1.2,38.9,0,34.3,0
		c-1.1,0-2.2,0.1-3.2,0.3L23.8,13c1.6,3.2,5.5,4.5,10.2,5.5c4,0.9,4.9,1.6,4.9,2.8v0.1c0,1.2-1.2,2-3.3,2c-3.3,0-6.5-1.2-9.4-3.4
		l-3.6,6.2c3.5,2.6,8,4,12.6,4c7.1,0,11.8-3.5,11.8-9.5v-0.1C47.1,15.1,42.9,13,36.2,11.5z"/>
	<path fill="#414042" d="M21.2,7.4l4.2-7.2H0V30h8.7V19.3h5.6l3.9-6.8h-8V7.4H21.2z"/>
</g>
</svg>
