<?xml version="1.0" encoding="utf-8"?>
<!-- Generator: Adobe Illustrator 17.0.0, SVG Export Plug-In . SVG Version: 6.00 Build 0)  -->
<!DOCTYPE svg PUBLIC "-//W3C//DTD SVG 1.1//EN" "http://www.w3.org/Graphics/SVG/1.1/DTD/svg11.dtd">
<svg version="1.1" id="Layer_1" xmlns="http://www.w3.org/2000/svg" xmlns:xlink="http://www.w3.org/1999/xlink" x="0px" y="0px"
	 width="235.014px" height="150.58px" viewBox="-216.337 810.834 235.014 150.58"
	 enable-background="new -216.337 810.834 235.014 150.58" xml:space="preserve">
<g>
	<path fill="#404041" d="M-35.641,868.377c-20.436-4.302-25.276-7.529-25.276-13.982v-0.538c0-5.378,4.84-9.142,14.52-9.142
		c12.907,0,26.889,4.84,40.334,13.982l17.747-30.654c-15.058-11.294-33.881-17.209-57.005-17.209
		c-5.916,0-10.756,0.538-15.596,1.613l-36.569,63.459c8.067,16.134,27.427,22.049,51.09,27.427
		c19.898,4.84,24.738,8.067,24.738,13.982v0.538c0,6.453-5.916,10.218-16.671,10.218c-16.671,0-32.805-5.916-46.787-17.209
		l-17.747,30.654c17.209,13.445,39.796,19.898,62.921,19.898c35.494,0,58.619-17.747,58.619-47.325v-0.538
		C18.137,886.662-2.299,875.906-35.641,868.377z"/>
	<path fill="#404041" d="M-110.931,848.479l20.974-36.032h-126.38v148.429h43.561v-53.241h27.965l19.898-34.418h-39.796v-25.276
		h53.779L-110.931,848.479L-110.931,848.479z"/>
</g>
</svg>
