<?xml version="1.0" encoding="utf-8"?>
<!-- Generator: Adobe Illustrator 17.0.0, SVG Export Plug-In . SVG Version: 6.00 Build 0)  -->
<!DOCTYPE svg PUBLIC "-//W3C//DTD SVG 1.1//EN" "http://www.w3.org/Graphics/SVG/1.1/DTD/svg11.dtd">
<svg version="1.1" xmlns="http://www.w3.org/2000/svg" xmlns:xlink="http://www.w3.org/1999/xlink" x="0px" y="0px"
	 width="124.28px" height="48.648px" viewBox="0 0 124.28 48.648" enable-background="new 0 0 124.28 48.648" xml:space="preserve">
<g id="Layer_1">
	<g opacity="0.7">
		<path fill="#414042" d="M10.387,35.792h3.511v12.604h-3.511V35.792z"/>
		<path fill="#414042" d="M16.831,35.792h3.259l5.186,6.662v-6.662h3.457v12.604h-3.061l-5.384-6.914v6.914h-3.457V35.792z"/>
		<path fill="#414042" d="M30.637,46.524l1.944-2.323c1.243,0.99,2.629,1.513,4.087,1.513c0.937,0,1.44-0.324,1.44-0.864v-0.036
			c0-0.522-0.414-0.811-2.125-1.206c-2.683-0.612-4.753-1.369-4.753-3.962V39.61c0-2.341,1.854-4.033,4.879-4.033
			c2.143,0,3.817,0.576,5.186,1.674l-1.747,2.467c-1.152-0.811-2.412-1.242-3.529-1.242c-0.847,0-1.261,0.36-1.261,0.811v0.035
			c0,0.576,0.432,0.829,2.179,1.225c2.898,0.631,4.699,1.566,4.699,3.926v0.035c0,2.575-2.034,4.105-5.096,4.105
			C34.31,48.612,32.185,47.909,30.637,46.524z"/>
		<path fill="#414042" d="M43.794,42.868v-7.076h3.548v7.004c0,1.818,0.918,2.683,2.322,2.683s2.323-0.828,2.323-2.593v-7.094h3.547
			v6.985c0,4.069-2.323,5.853-5.906,5.853S43.794,46.811,43.794,42.868z"/>
		<path fill="#414042" d="M58.231,35.792h5.96c1.927,0,3.259,0.504,4.104,1.368c0.738,0.721,1.117,1.692,1.117,2.935v0.036
			c0,1.927-1.026,3.205-2.593,3.871l3.007,4.394h-4.033l-2.539-3.817h-0.036h-1.494v3.817h-3.493V35.792z M64.029,41.842
			c1.188,0,1.872-0.576,1.872-1.495v-0.035c0-0.991-0.72-1.495-1.891-1.495h-2.286v3.025H64.029z"/>
		<path fill="#414042" d="M75.94,35.702h3.367l5.365,12.693h-3.745l-0.918-2.251h-4.861l-0.9,2.251h-3.673L75.94,35.702z
			 M79.001,43.426l-1.404-3.583l-1.423,3.583H79.001z"/>
		<path fill="#414042" d="M86.023,35.792h3.259l5.186,6.662v-6.662h3.457v12.604h-3.061l-5.384-6.914v6.914h-3.457V35.792z"/>
		<path fill="#414042" d="M99.85,42.13v-0.036c0-3.673,2.827-6.554,6.645-6.554c2.574,0,4.231,1.08,5.348,2.628l-2.629,2.035
			c-0.721-0.9-1.549-1.477-2.755-1.477c-1.765,0-3.007,1.494-3.007,3.331v0.036c0,1.891,1.242,3.367,3.007,3.367
			c1.314,0,2.089-0.612,2.845-1.531l2.629,1.873c-1.188,1.639-2.791,2.845-5.582,2.845C102.75,48.648,99.85,45.893,99.85,42.13z"/>
		<path fill="#414042" d="M114.052,35.792h10.138v2.971h-6.681v1.908h6.05v2.755h-6.05v1.999h6.771v2.971h-10.228V35.792z"/>
	</g>
	<path fill="#414042" d="M36.911,11.704c-4.122-0.926-5.133-1.522-5.133-2.874V8.745c0-1.068,0.974-1.919,2.968-1.919
		c2.59,0,5.53,1.002,8.215,2.874l3.602-6.23C43.443,1.191,39.681,0,34.954,0c-1.153,0-2.231,0.104-3.233,0.303l-7.468,12.98
		c1.626,3.243,5.606,4.538,10.408,5.634c4.027,0.936,5.01,1.617,5.01,2.846v0.085c0,1.267-1.191,2.033-3.394,2.033
		c-3.403,0-6.646-1.201-9.548-3.498l-3.621,6.268c3.526,2.694,8.102,4.065,12.866,4.065c7.213,0,12.006-3.602,12.006-9.671v-0.095
		C47.981,15.4,43.736,13.197,36.911,11.704z"/>
	<path fill="#414042" d="M21.568,7.585l4.243-7.355H0v30.325h8.872v-10.84h5.697l4.018-6.971h-8.172V7.585H21.568z"/>
</g>
<g id="guide" display="none">
	<g display="inline">
		<rect x="-53.861" y="-5.056" opacity="0.8" fill="#EC008C" fill-opacity="0.61" width="119.192" height="5.217"/>
		<rect x="-53.861" y="30.569" opacity="0.8" fill="#EC008C" fill-opacity="0.61" width="181.165" height="5.217"/>
		<rect x="-0.101" y="-15.391" opacity="0.8" fill="#EC008C" fill-opacity="0.61" width="5.217" height="49.533"/>
		<rect x="5.129" y="-15.391" opacity="0.8" fill="#EC008C" fill-opacity="0.61" width="5.217" height="65.3"/>
		<rect x="46.566" y="-15.203" opacity="0.8" fill="#EC008C" fill-opacity="0.61" width="5.217" height="49.533"/>
		<polygon opacity="0.8" fill="#EC008C" fill-opacity="0.61" points="34.64,-4.843 15.97,27.497 10.03,27.497 30.19,-7.423 		"/>
		<polygon opacity="0.8" fill="#EC008C" fill-opacity="0.61" points="21.64,17.823 2.97,50.163 -2.97,50.163 17.19,15.243 		"/>
	</g>
</g>
</svg>
