<?xml version="1.0" encoding="utf-8"?>
<!-- Generator: Adobe Illustrator 17.0.0, SVG Export Plug-In . SVG Version: 6.00 Build 0)  -->
<!DOCTYPE svg PUBLIC "-//W3C//DTD SVG 1.1//EN" "http://www.w3.org/Graphics/SVG/1.1/DTD/svg11.dtd">
<svg version="1.1" xmlns="http://www.w3.org/2000/svg" xmlns:xlink="http://www.w3.org/1999/xlink" x="0px" y="0px"
	 width="110.222px" height="48.647px" viewBox="0 0 110.222 48.647" enable-background="new 0 0 110.222 48.647"
	 xml:space="preserve">
<g id="Layer_1">
	<g opacity="0.7">
		<path fill="#414042" d="M10.294,35.792h3.493v9.542h6.104v3.061h-9.597V35.792z"/>
		<path fill="#414042" d="M22.012,35.792h10.137v2.97h-6.68v1.908h6.05v2.755h-6.05v1.999h6.77v2.971H22.012V35.792z"/>
		<path fill="#414042" d="M39.005,35.703h3.367l5.365,12.693h-3.745l-0.918-2.251h-4.861l-0.9,2.251H33.64L39.005,35.703z
			 M42.067,43.426l-1.405-3.583l-1.422,3.583H42.067z"/>
		<path fill="#414042" d="M49.213,35.792h5.96c1.926,0,3.259,0.504,4.104,1.368c0.738,0.721,1.117,1.692,1.117,2.934v0.036
			c0,1.927-1.026,3.205-2.593,3.871l3.007,4.394h-4.033l-2.539-3.817h-0.036h-1.494v3.817h-3.493V35.792z M55.011,41.842
			c1.188,0,1.872-0.576,1.872-1.495v-0.035c0-0.991-0.72-1.495-1.891-1.495h-2.286v3.025H55.011z"/>
		<path fill="#414042" d="M62.785,35.792h3.26l5.186,6.662v-6.662h3.457v12.603h-3.062l-5.384-6.914v6.914h-3.457V35.792z"/>
		<path fill="#414042" d="M77.617,35.792h3.511v12.603h-3.511V35.792z"/>
		<path fill="#414042" d="M84.061,35.792h3.259l5.186,6.662v-6.662h3.457v12.603h-3.061l-5.384-6.914v6.914h-3.457V35.792z"/>
		<path fill="#414042" d="M97.888,42.13v-0.036c0-3.672,2.881-6.553,6.788-6.553c2.215,0,3.781,0.684,5.114,1.836l-2.053,2.466
			c-0.9-0.756-1.801-1.188-3.043-1.188c-1.818,0-3.224,1.531-3.224,3.457v0.036c0,2.035,1.423,3.493,3.422,3.493
			c0.846,0,1.494-0.18,2.017-0.522v-1.53h-2.485v-2.557h5.798v5.672c-1.332,1.099-3.187,1.944-5.474,1.944
			C100.824,48.647,97.888,45.947,97.888,42.13z"/>
	</g>
	<path fill="#414042" d="M36.911,11.704c-4.122-0.926-5.133-1.522-5.133-2.874V8.745c0-1.068,0.974-1.919,2.968-1.919
		c2.59,0,5.53,1.002,8.215,2.874l3.602-6.23C43.443,1.191,39.681,0,34.954,0c-1.153,0-2.231,0.104-3.233,0.303l-7.468,12.98
		c1.626,3.243,5.606,4.538,10.408,5.634c4.027,0.936,5.01,1.617,5.01,2.846v0.085c0,1.267-1.191,2.033-3.394,2.033
		c-3.403,0-6.646-1.201-9.548-3.498l-3.621,6.268c3.526,2.694,8.102,4.065,12.866,4.065c7.213,0,12.006-3.602,12.006-9.671v-0.095
		C47.981,15.4,43.736,13.197,36.911,11.704z"/>
	<path fill="#414042" d="M21.568,7.585l4.243-7.355H0v30.325h8.872v-10.84h5.697l4.018-6.971h-8.172V7.585H21.568z"/>
</g>
<g id="guide">
	<g display="none">
		
			<rect x="-53.861" y="-5.056" display="inline" opacity="0.8" fill="#EC008C" fill-opacity="0.61" width="119.192" height="5.217"/>
		
			<rect x="-53.861" y="30.569" display="inline" opacity="0.8" fill="#EC008C" fill-opacity="0.61" width="181.165" height="5.217"/>
		<rect x="-0.101" y="-15.391" display="inline" opacity="0.8" fill="#EC008C" fill-opacity="0.61" width="5.217" height="49.533"/>
		<rect x="5.129" y="-15.391" display="inline" opacity="0.8" fill="#EC008C" fill-opacity="0.61" width="5.217" height="65.3"/>
		<rect x="46.566" y="-15.203" display="inline" opacity="0.8" fill="#EC008C" fill-opacity="0.61" width="5.217" height="49.533"/>
		<polygon display="inline" opacity="0.8" fill="#EC008C" fill-opacity="0.61" points="34.64,-4.843 15.97,27.497 10.03,27.497 
			30.19,-7.423 		"/>
		<polygon display="inline" opacity="0.8" fill="#EC008C" fill-opacity="0.61" points="21.64,17.823 2.97,50.163 -2.97,50.163 
			17.19,15.243 		"/>
	</g>
</g>
</svg>
